<svg version="1.1" id="Layer_1" xmlns="http://www.w3.org/2000/svg" xmlns:xlink="http://www.w3.org/1999/xlink" x="0px" y="0px"
	 width="100%" viewBox="0 0 1024 1024" enable-background="new 0 0 1024 1024" xml:space="preserve">
<path fill="#EBEBEB" opacity="1.000000" stroke="none" 
	d="
M572.000000,1025.000000 
	C381.333344,1025.000000 191.166672,1025.000000 1.000000,1025.000000 
	C1.000000,683.666687 1.000000,342.333344 1.000000,1.000000 
	C342.333344,1.000000 683.666687,1.000000 1025.000000,1.000000 
	C1025.000000,342.333344 1025.000000,683.666687 1025.000000,1025.000000 
	C874.166687,1025.000000 723.333313,1025.000000 572.000000,1025.000000 
M802.815247,505.234161 
	C803.013000,504.955353 803.210754,504.676544 803.250793,504.456726 
	C803.250793,504.456726 803.418945,504.465668 803.996643,504.280090 
	C804.768921,503.642242 805.541260,503.004395 806.251282,502.241364 
	C806.251282,502.241364 806.228943,502.379364 806.966309,502.218933 
	C813.814026,498.061737 821.356018,497.739197 829.079529,497.988342 
	C835.567322,498.197632 837.779480,495.860596 837.787537,489.461060 
	C837.795471,483.159790 837.618042,476.852692 837.827942,470.558350 
	C838.352051,454.841705 836.916260,454.393768 820.263916,455.079559 
	C819.175293,455.145416 818.086609,455.211273 816.155640,455.127228 
	C810.662231,455.249939 805.621521,456.542053 801.787720,460.790344 
	C801.787720,460.790344 801.798950,460.679474 801.250183,460.842560 
	C801.056641,461.157196 800.863037,461.471802 800.775635,461.744598 
	C800.775635,461.744598 800.687622,461.671906 800.071838,461.931061 
	C798.554688,463.565277 797.037537,465.199493 795.542786,466.809601 
	C794.787231,464.282349 794.110718,462.019409 793.502625,459.610199 
	C793.502625,459.610199 793.433777,459.464111 793.199585,458.833923 
	C790.641296,457.586273 788.138733,455.422699 785.514221,455.263092 
	C777.714172,454.788635 769.865173,455.031464 762.037109,455.132812 
	C756.592773,455.203308 753.957764,457.741669 753.952942,463.055206 
	C753.920837,498.370636 753.936890,533.686218 753.995789,569.001587 
	C754.005005,574.510803 756.418701,576.883362 761.935730,576.941711 
	C770.097351,577.028015 778.262878,577.061951 786.421204,576.875366 
	C788.004456,576.839172 789.562317,575.691040 791.571228,574.899353 
	C791.848694,574.715759 792.010742,574.459351 792.744690,573.878967 
	C793.322693,571.715332 794.370239,569.558105 794.400269,567.386902 
	C794.560669,555.788513 794.714355,544.179504 794.383850,532.588074 
	C794.111755,523.043640 795.439880,514.119812 801.244629,506.152557 
	C801.244629,506.152557 801.332458,506.362701 801.847778,506.201721 
	C802.019043,505.896576 802.190308,505.591431 802.247192,505.262665 
	C802.247192,505.262665 802.300354,505.366608 802.815247,505.234161 
M226.750244,575.190491 
	C227.172256,574.796753 227.594269,574.402954 228.000000,574.000000 
	C228.000000,574.000000 228.008347,574.015808 228.820786,573.830200 
	C232.866226,574.616516 236.911652,575.402832 241.460709,576.606812 
	C242.323914,576.665161 243.187103,576.723511 244.850937,577.000244 
	C252.632431,576.085266 260.413940,575.170227 268.093262,574.281921 
	C268.093262,574.281921 268.155731,574.367004 268.859741,574.357971 
	C270.142242,573.877991 271.424744,573.398071 273.451019,572.841919 
	C307.233398,559.217102 319.185486,520.400818 305.107788,489.929871 
	C293.651520,465.133026 265.963501,450.175140 240.248398,455.548767 
	C236.582947,456.421387 232.917496,457.294037 228.766708,458.282196 
	C228.659088,456.180145 228.496765,454.401794 228.488495,452.622742 
	C228.432312,440.532593 228.567047,428.437805 228.230606,416.355957 
	C228.168900,414.140228 226.235458,411.976593 225.026733,409.841461 
	C225.026733,409.841461 225.175491,409.836456 224.741730,409.193115 
	C216.120071,408.981018 207.499435,408.690094 198.876480,408.577881 
	C189.226944,408.452271 187.996307,409.735016 187.997330,419.502228 
	C188.002533,468.802765 188.020370,518.103271 188.036758,567.403809 
	C188.039291,575.027466 190.272736,577.130188 198.874664,576.908813 
	C205.263000,576.849304 211.651337,576.789734 218.496964,576.873718 
	C218.496964,576.873718 218.961105,576.754211 219.713455,576.911865 
	C220.476089,576.856323 221.238724,576.800781 222.669983,576.872498 
	C223.848892,576.330078 225.027817,575.787659 226.061798,575.142395 
	C226.061798,575.142395 226.162338,575.289001 226.750244,575.190491 
M321.872955,409.864594 
	C321.872955,409.864594 321.829193,409.780701 321.144318,410.106476 
	C320.380402,412.023254 318.954742,413.938141 318.949280,415.857086 
	C318.814056,463.425110 318.780426,510.993713 318.944519,558.561462 
	C318.953857,561.267700 320.801117,563.967590 321.936401,567.297852 
	C326.629883,573.793152 332.690704,577.389160 340.999390,577.025879 
	C347.651123,576.735168 354.326141,577.004639 360.990479,576.965820 
	C366.845093,576.931702 369.959564,573.970520 370.040802,568.133606 
	C370.138153,561.137756 369.921051,554.137207 370.036255,547.142029 
	C370.115143,542.349854 368.307770,538.358276 364.232361,536.268433 
	C359.361267,533.770569 358.770874,530.134644 358.789703,525.260925 
	C358.930267,488.939911 358.786865,452.617889 358.833252,416.296295 
	C358.839111,411.708221 357.180939,408.606903 352.431763,408.580109 
	C342.619019,408.524750 332.803955,408.883240 322.437378,409.043396 
	C322.217773,409.319336 321.998169,409.595276 321.872955,409.864594 
M560.348877,570.713013 
	C562.001343,570.527954 563.651917,570.323730 565.306763,570.163513 
	C566.772034,570.021606 568.241943,569.928528 569.709839,569.813904 
	C564.429260,574.611206 558.182007,575.109741 551.899963,575.242859 
	C542.745117,575.436890 533.580688,575.281433 524.431396,575.595947 
	C518.640320,575.795105 517.385132,577.299194 517.344360,582.910767 
	C517.278992,591.902466 517.267212,600.895203 517.324951,609.886902 
	C517.356628,614.827942 519.415344,616.988159 524.260071,616.993835 
	C536.915222,617.008789 549.583069,617.231323 562.223328,616.762878 
	C592.981262,615.622864 618.482117,591.362183 619.984253,560.545715 
	C621.126038,537.120911 620.422180,513.605713 620.512695,490.130585 
	C620.547424,481.138245 620.595337,472.144379 620.469482,463.153564 
	C620.392456,457.652191 618.292786,455.181152 613.737549,455.131012 
	C605.412781,455.039337 597.085266,455.081329 588.760620,455.195740 
	C587.145752,455.217926 585.550415,455.903137 583.925537,456.143768 
	C581.651245,456.480591 579.191589,457.361053 577.098083,456.845032 
	C556.629822,451.799896 538.175354,455.208588 522.066956,469.276978 
	C504.729218,484.418976 497.960968,510.694031 505.878571,532.203918 
	C514.526917,555.699036 535.141296,570.522705 560.348877,570.713013 
M737.941467,455.178009 
	C729.781433,455.171967 721.620117,455.085114 713.462402,455.219696 
	C711.550781,455.251221 709.662903,456.092926 707.743408,456.451172 
	C705.818665,456.810394 703.660889,457.720978 701.959717,457.209991 
	C672.722168,448.428009 644.273743,461.571716 631.977173,489.716614 
	C616.496216,525.150024 638.502319,564.831055 676.757874,570.097229 
	C682.243652,570.852356 687.922913,570.201843 693.512634,570.201843 
	C692.267090,571.591614 690.785828,572.738953 689.162476,572.998779 
	C683.275940,573.941040 677.360779,574.927795 671.420776,575.259094 
	C663.286438,575.712769 655.117432,575.506775 646.967773,575.741028 
	C643.628784,575.836975 641.225586,577.188721 641.257935,581.159180 
	C641.337830,590.983887 641.292175,600.809509 641.320862,610.634705 
	C641.333496,614.964905 643.602478,617.013000 647.875977,616.985962 
	C660.364868,616.906982 672.900269,617.502197 685.333557,616.633179 
	C716.578918,614.449219 743.129089,592.381287 744.034058,558.531128 
	C744.888306,526.580200 744.485291,494.595459 744.609558,462.625488 
	C744.624878,458.692200 743.139282,455.811798 737.941467,455.178009 
M395.127777,604.604858 
	C408.450684,596.078796 421.759857,587.531067 435.117554,579.059875 
	C436.472656,578.200500 438.073303,577.449768 439.638733,577.242065 
	C467.169830,573.590088 485.662598,558.558594 493.891724,532.227478 
	C507.003937,490.271545 470.850342,449.143677 425.994080,454.974884 
	C400.190094,458.329346 383.285767,473.838623 375.184753,498.035217 
	C367.183502,521.933716 373.536621,543.021057 391.392487,560.559143 
	C393.735535,562.860474 394.181580,564.419983 392.854675,567.292603 
	C388.109222,577.566223 383.506012,587.908264 379.031464,598.303040 
	C376.712219,603.690796 378.711578,607.861389 384.567780,608.288147 
	C387.784332,608.522461 391.188812,606.177185 395.127777,604.604858 
z"/>
<path fill="#86AA2C" opacity="1.000000" stroke="none" 
	d="
M559.894043,570.715942 
	C535.141296,570.522705 514.526917,555.699036 505.878571,532.203918 
	C497.960968,510.694031 504.729218,484.418976 522.066956,469.276978 
	C538.175354,455.208588 556.629822,451.799896 577.098083,456.845032 
	C579.191589,457.361053 581.651245,456.480591 583.925537,456.143768 
	C585.550415,455.903137 587.145752,455.217926 588.760620,455.195740 
	C597.085266,455.081329 605.412781,455.039337 613.737549,455.131012 
	C618.292786,455.181152 620.392456,457.652191 620.469482,463.153564 
	C620.595337,472.144379 620.547424,481.138245 620.512695,490.130585 
	C620.422180,513.605713 621.126038,537.120911 619.984253,560.545715 
	C618.482117,591.362183 592.981262,615.622864 562.223328,616.762878 
	C549.583069,617.231323 536.915222,617.008789 524.260071,616.993835 
	C519.415344,616.988159 517.356628,614.827942 517.324951,609.886902 
	C517.267212,600.895203 517.278992,591.902466 517.344360,582.910767 
	C517.385132,577.299194 518.640320,575.795105 524.431396,575.595947 
	C533.580688,575.281433 542.745117,575.436890 551.899963,575.242859 
	C558.182007,575.109741 564.429260,574.611206 569.709839,569.813904 
	C568.241943,569.928528 566.772034,570.021606 565.306763,570.163513 
	C563.651917,570.323730 562.001343,570.527954 559.894043,570.715942 
M550.804016,525.721558 
	C551.717163,526.440491 552.578918,527.239136 553.551758,527.865295 
	C559.291931,531.559875 567.795898,531.392456 573.344116,527.519592 
	C578.820007,523.697205 581.824707,516.257751 580.388367,510.078552 
	C578.652405,502.610291 572.976196,497.122894 565.898132,496.070099 
	C558.551025,494.977356 550.814575,498.671234 547.242737,504.977448 
	C543.662476,511.298553 544.726807,518.405884 550.804016,525.721558 
z"/>
<path fill="#85AA2C" opacity="1.000000" stroke="none" 
	d="
M738.375916,455.199219 
	C743.139282,455.811798 744.624878,458.692200 744.609558,462.625488 
	C744.485291,494.595459 744.888306,526.580200 744.034058,558.531128 
	C743.129089,592.381287 716.578918,614.449219 685.333557,616.633179 
	C672.900269,617.502197 660.364868,616.906982 647.875977,616.985962 
	C643.602478,617.013000 641.333496,614.964905 641.320862,610.634705 
	C641.292175,600.809509 641.337830,590.983887 641.257935,581.159180 
	C641.225586,577.188721 643.628784,575.836975 646.967773,575.741028 
	C655.117432,575.506775 663.286438,575.712769 671.420776,575.259094 
	C677.360779,574.927795 683.275940,573.941040 689.162476,572.998779 
	C690.785828,572.738953 692.267090,571.591614 693.512634,570.201843 
	C687.922913,570.201843 682.243652,570.852356 676.757874,570.097229 
	C638.502319,564.831055 616.496216,525.150024 631.977173,489.716614 
	C644.273743,461.571716 672.722168,448.428009 701.959717,457.209991 
	C703.660889,457.720978 705.818665,456.810394 707.743408,456.451172 
	C709.662903,456.092926 711.550781,455.251221 713.462402,455.219696 
	C721.620117,455.085114 729.781433,455.171967 738.375916,455.199219 
M696.460205,528.178528 
	C697.386902,527.476013 698.371704,526.837708 699.230774,526.060364 
	C704.650696,521.156067 706.916199,513.621277 704.393799,507.454926 
	C701.598328,500.621033 696.643250,496.341309 688.916382,495.929138 
	C680.993958,495.506531 674.531738,499.102539 671.313477,505.780548 
	C668.339050,511.952637 669.568420,519.939575 674.250427,524.861389 
	C679.855591,530.753601 687.143127,531.998108 696.460205,528.178528 
z"/>
<path fill="#1A7C9A" opacity="1.000000" stroke="none" 
	d="
M241.000031,455.549713 
	C265.963501,450.175140 293.651520,465.133026 305.107788,489.929871 
	C319.185486,520.400818 307.233398,559.217102 272.708252,572.903931 
	C270.695587,573.432983 269.425659,573.900024 268.155731,574.367004 
	C268.155731,574.367004 268.093262,574.281921 267.704590,574.189697 
	C259.560699,574.992310 251.805496,575.887085 244.050293,576.781860 
	C243.187103,576.723511 242.323914,576.665161 241.000687,576.096069 
	C237.465179,574.474182 234.438797,573.167114 231.283035,572.376465 
	C230.384750,572.151489 229.110291,573.427917 228.008347,574.015808 
	C228.008347,574.015808 228.000000,574.000000 227.699707,574.038635 
	C226.987045,574.481201 226.574692,574.885071 226.162338,575.289001 
	C226.162338,575.289001 226.061798,575.142395 225.762314,575.122803 
	C224.309006,575.650513 223.155182,576.197876 222.001358,576.745239 
	C221.238724,576.800781 220.476089,576.856323 219.245850,576.714844 
	C218.480637,576.354858 218.234436,576.425598 218.039673,576.730164 
	C211.651337,576.789734 205.263000,576.849304 198.161987,576.602112 
	C194.974442,574.431213 190.899902,572.949890 190.343750,570.626465 
	C189.014236,565.071960 189.020828,559.119019 189.051636,553.329956 
	C189.292953,507.971558 189.661102,462.613770 190.008575,417.255951 
	C190.049606,411.900055 191.879593,410.061890 197.196960,410.010315 
	C206.522827,409.919891 215.849289,409.891083 225.175491,409.836456 
	C225.175491,409.836456 225.026733,409.841461 225.091034,410.218872 
	C225.770233,413.437836 226.865982,416.271057 226.915756,419.122498 
	C227.118393,430.730194 226.846390,442.347565 227.149643,453.950897 
	C227.201324,455.928528 229.602448,459.650055 230.250397,459.508545 
	C233.945557,458.701508 237.438416,456.968201 241.000031,455.549713 
M244.178192,535.741638 
	C253.280884,537.056946 260.824280,534.382874 265.449860,526.221069 
	C269.538147,519.007385 269.337769,511.502411 264.372772,504.601593 
	C259.217896,497.436859 250.049545,494.665680 241.716125,497.466736 
	C233.689804,500.164581 228.039993,508.008942 228.054276,516.435364 
	C228.069946,525.684998 233.444931,532.381104 244.178192,535.741638 
z"/>
<path fill="#1A7C9A" opacity="1.000000" stroke="none" 
	d="
M394.818176,604.799927 
	C391.188812,606.177185 387.784332,608.522461 384.567780,608.288147 
	C378.711578,607.861389 376.712219,603.690796 379.031464,598.303040 
	C383.506012,587.908264 388.109222,577.566223 392.854675,567.292603 
	C394.181580,564.419983 393.735535,562.860474 391.392487,560.559143 
	C373.536621,543.021057 367.183502,521.933716 375.184753,498.035217 
	C383.285767,473.838623 400.190094,458.329346 425.994080,454.974884 
	C470.850342,449.143677 507.003937,490.271545 493.891724,532.227478 
	C485.662598,558.558594 467.169830,573.590088 439.638733,577.242065 
	C438.073303,577.449768 436.472656,578.200500 435.117554,579.059875 
	C421.759857,587.531067 408.450684,596.078796 394.818176,604.799927 
M437.056976,496.207428 
	C435.729218,496.194397 434.390717,496.065094 433.075348,496.186462 
	C421.289551,497.273956 413.430969,506.863708 414.788086,518.448547 
	C416.070435,529.395325 426.100067,537.253967 436.990143,535.844910 
	C446.655701,534.594177 453.677338,527.230835 454.404785,517.582520 
	C455.151093,507.684021 448.558563,499.209106 437.056976,496.207428 
z"/>
<path fill="#1A7C9A" opacity="1.000000" stroke="none" 
	d="
M322.989868,409.071533 
	C332.803955,408.883240 342.619019,408.524750 352.431763,408.580109 
	C357.180939,408.606903 358.839111,411.708221 358.833252,416.296295 
	C358.786865,452.617889 358.930267,488.939911 358.789703,525.260925 
	C358.770874,530.134644 359.361267,533.770569 364.232361,536.268433 
	C368.307770,538.358276 370.115143,542.349854 370.036255,547.142029 
	C369.921051,554.137207 370.138153,561.137756 370.040802,568.133606 
	C369.959564,573.970520 366.845093,576.931702 360.990479,576.965820 
	C354.326141,577.004639 347.651123,576.735168 340.999390,577.025879 
	C332.690704,577.389160 326.629883,573.793152 321.889526,566.545166 
	C321.228455,560.560852 320.100494,555.330994 320.081543,550.097229 
	C319.933990,509.364532 319.925110,468.630768 320.081543,427.898102 
	C320.104767,421.856812 321.219482,415.819733 321.829193,409.780701 
	C321.829193,409.780701 321.872955,409.864594 322.073364,409.812256 
	C322.512451,409.530457 322.751160,409.300995 322.989868,409.071533 
z"/>
<path fill="#1A7C9A" opacity="1.000000" stroke="none" 
	d="
M792.057495,574.130005 
	C792.010742,574.459351 791.848694,574.715759 790.927490,575.015442 
	C781.030884,575.196228 771.777710,575.232605 762.525208,575.335999 
	C756.820251,575.399780 755.893555,572.141479 755.918030,567.191650 
	C756.077454,534.898071 755.991577,502.603302 756.020569,470.308929 
	C756.022339,468.327698 756.209717,466.330505 756.499817,464.368683 
	C757.429688,458.080475 758.644348,456.824554 764.812134,457.051208 
	C774.382751,457.402924 784.180725,455.311554 793.433777,459.464111 
	C793.433777,459.464111 793.502625,459.610199 793.332031,460.142029 
	C793.161438,463.680511 793.161438,466.687195 793.161438,470.021271 
	C797.982666,468.169250 799.878723,465.869720 800.687622,461.671906 
	C800.687622,461.671906 800.775635,461.744598 801.008667,461.699890 
	C801.427490,461.329926 801.613220,461.004700 801.798950,460.679474 
	C801.798950,460.679474 801.787720,460.790344 802.128540,460.806274 
	C806.935120,459.471039 811.411255,458.152161 815.851807,456.722778 
	C816.338562,456.566101 816.620911,455.774353 816.997986,455.277161 
	C818.086609,455.211273 819.175293,455.145416 820.993286,455.387665 
	C824.205872,455.799652 826.716125,455.710114 829.165527,456.054199 
	C832.571960,456.532745 835.933533,457.600250 835.945251,461.866791 
	C835.973022,472.000702 835.887390,482.140076 835.494690,492.263580 
	C835.444458,493.558502 833.429016,495.661499 832.093018,495.863617 
	C827.255676,496.595398 822.184570,496.091766 817.462891,497.183716 
	C813.528137,498.093628 809.959656,500.587219 806.228943,502.379395 
	C806.228943,502.379364 806.251282,502.241364 805.923218,502.222137 
	C804.869751,502.957184 804.144348,503.711426 803.418945,504.465668 
	C803.418945,504.465668 803.250793,504.456726 803.035217,504.428925 
	C802.646545,504.722961 802.473450,505.044769 802.300293,505.366577 
	C802.300354,505.366608 802.247192,505.262665 802.017212,505.318146 
	C801.635681,505.703308 801.484070,506.033020 801.332458,506.362701 
	C801.332458,506.362701 801.244629,506.152557 800.955688,506.258606 
	C794.350586,510.549744 793.356567,517.284790 793.106812,523.866943 
	C792.471619,540.610474 792.371643,557.374329 792.057495,574.130005 
z"/>
<path fill="#1A7C9A" opacity="1.000000" stroke="none" 
	d="
M793.316650,459.149017 
	C784.180725,455.311554 774.382751,457.402924 764.812134,457.051208 
	C758.644348,456.824554 757.429688,458.080475 756.499817,464.368683 
	C756.209717,466.330505 756.022339,468.327698 756.020569,470.308929 
	C755.991577,502.603302 756.077454,534.898071 755.918030,567.191650 
	C755.893555,572.141479 756.820251,575.399780 762.525208,575.335999 
	C771.777710,575.232605 781.030884,575.196228 790.707886,575.093689 
	C789.562317,575.691040 788.004456,576.839172 786.421204,576.875366 
	C778.262878,577.061951 770.097351,577.028015 761.935730,576.941711 
	C756.418701,576.883362 754.005005,574.510803 753.995789,569.001587 
	C753.936890,533.686218 753.920837,498.370636 753.952942,463.055206 
	C753.957764,457.741669 756.592773,455.203308 762.037109,455.132812 
	C769.865173,455.031464 777.714172,454.788635 785.514221,455.263092 
	C788.138733,455.422699 790.641296,457.586273 793.316650,459.149017 
z"/>
<path fill="#1A7C9A" opacity="1.000000" stroke="none" 
	d="
M224.958618,409.514771 
	C215.849289,409.891083 206.522827,409.919891 197.196960,410.010315 
	C191.879593,410.061890 190.049606,411.900055 190.008575,417.255951 
	C189.661102,462.613770 189.292953,507.971558 189.051636,553.329956 
	C189.020828,559.119019 189.014236,565.071960 190.343750,570.626465 
	C190.899902,572.949890 194.974442,574.431213 197.695282,576.527527 
	C190.272736,577.130188 188.039291,575.027466 188.036758,567.403809 
	C188.020370,518.103271 188.002533,468.802765 187.997330,419.502228 
	C187.996307,409.735016 189.226944,408.452271 198.876480,408.577881 
	C207.499435,408.690094 216.120071,408.981018 224.958618,409.514771 
z"/>
<path fill="#1A7C9A" opacity="1.000000" stroke="none" 
	d="
M321.486755,409.943604 
	C321.219482,415.819733 320.104767,421.856812 320.081543,427.898102 
	C319.925110,468.630768 319.933990,509.364532 320.081543,550.097229 
	C320.100494,555.330994 321.228455,560.560852 321.817841,566.231445 
	C320.801117,563.967590 318.953857,561.267700 318.944519,558.561462 
	C318.780426,510.993713 318.814056,463.425110 318.949280,415.857086 
	C318.954742,413.938141 320.380402,412.023254 321.486755,409.943604 
z"/>
<path fill="#1A7C9A" opacity="1.000000" stroke="none" 
	d="
M806.597656,502.299164 
	C809.959656,500.587219 813.528137,498.093628 817.462891,497.183716 
	C822.184570,496.091766 827.255676,496.595398 832.093018,495.863617 
	C833.429016,495.661499 835.444458,493.558502 835.494690,492.263580 
	C835.887390,482.140076 835.973022,472.000702 835.945251,461.866791 
	C835.933533,457.600250 832.571960,456.532745 829.165527,456.054199 
	C826.716125,455.710114 824.205872,455.799652 821.396240,455.470245 
	C836.916260,454.393768 838.352051,454.841705 837.827942,470.558350 
	C837.618042,476.852692 837.795471,483.159790 837.787537,489.461060 
	C837.779480,495.860596 835.567322,498.197632 829.079529,497.988342 
	C821.356018,497.739197 813.814026,498.061737 806.597656,502.299164 
z"/>
<path fill="#1A7C9A" opacity="1.000000" stroke="none" 
	d="
M792.401123,574.004517 
	C792.371643,557.374329 792.471619,540.610474 793.106812,523.866943 
	C793.356567,517.284790 794.350586,510.549744 801.028442,506.346191 
	C795.439880,514.119812 794.111755,523.043640 794.383850,532.588074 
	C794.714355,544.179504 794.560669,555.788513 794.400269,567.386902 
	C794.370239,569.558105 793.322693,571.715332 792.401123,574.004517 
z"/>
<path fill="#1A7C9A" opacity="1.000000" stroke="none" 
	d="
M240.624207,455.549255 
	C237.438416,456.968201 233.945557,458.701508 230.250397,459.508545 
	C229.602448,459.650055 227.201324,455.928528 227.149643,453.950897 
	C226.846390,442.347565 227.118393,430.730194 226.915756,419.122498 
	C226.865982,416.271057 225.770233,413.437836 225.160675,410.192566 
	C226.235458,411.976593 228.168900,414.140228 228.230606,416.355957 
	C228.567047,428.437805 228.432312,440.532593 228.488495,452.622742 
	C228.496765,454.401794 228.659088,456.180145 228.766708,458.282196 
	C232.917496,457.294037 236.582947,456.421387 240.624207,455.549255 
z"/>
<path fill="#1A7C9A" opacity="1.000000" stroke="none" 
	d="
M800.379761,461.801483 
	C799.878723,465.869720 797.982666,468.169250 793.161438,470.021271 
	C793.161438,466.687195 793.161438,463.680511 793.297852,460.215149 
	C794.110718,462.019409 794.787231,464.282349 795.542786,466.809601 
	C797.037537,465.199493 798.554688,463.565277 800.379761,461.801483 
z"/>
<path fill="#1A7C9A" opacity="1.000000" stroke="none" 
	d="
M244.450623,576.891113 
	C251.805496,575.887085 259.560699,574.992310 267.755676,574.176392 
	C260.413940,575.170227 252.632431,576.085266 244.450623,576.891113 
z"/>
<path fill="#1A7C9A" opacity="1.000000" stroke="none" 
	d="
M816.576782,455.202209 
	C816.620911,455.774353 816.338562,456.566101 815.851807,456.722778 
	C811.411255,458.152161 806.935120,459.471039 802.084167,460.772583 
	C805.621521,456.542053 810.662231,455.249939 816.576782,455.202209 
z"/>
<path fill="#1A7C9A" opacity="1.000000" stroke="none" 
	d="
M228.414566,573.922974 
	C229.110291,573.427917 230.384750,572.151489 231.283035,572.376465 
	C234.438797,573.167114 237.465179,574.474182 240.748871,575.887207 
	C236.911652,575.402832 232.866226,574.616516 228.414566,573.922974 
z"/>
<path fill="#1A7C9A" opacity="1.000000" stroke="none" 
	d="
M222.335663,576.808838 
	C223.155182,576.197876 224.309006,575.650513 225.834778,575.174194 
	C225.027817,575.787659 223.848892,576.330078 222.335663,576.808838 
z"/>
<path fill="#1A7C9A" opacity="1.000000" stroke="none" 
	d="
M803.707764,504.372864 
	C804.144348,503.711426 804.869751,502.957184 805.954346,502.284729 
	C805.541260,503.004395 804.768921,503.642242 803.707764,504.372864 
z"/>
<path fill="#1A7C9A" opacity="1.000000" stroke="none" 
	d="
M268.507751,574.362488 
	C269.425659,573.900024 270.695587,573.432983 272.336365,572.942017 
	C271.424744,573.398071 270.142242,573.877991 268.507751,574.362488 
z"/>
<path fill="#1A7C9A" opacity="1.000000" stroke="none" 
	d="
M226.456299,575.239746 
	C226.574692,574.885071 226.987045,574.481201 227.707840,574.043213 
	C227.594269,574.402954 227.172256,574.796753 226.456299,575.239746 
z"/>
<path fill="#1A7C9A" opacity="1.000000" stroke="none" 
	d="
M218.268311,576.801941 
	C218.234436,576.425598 218.480637,576.354858 218.869690,576.636047 
	C218.961105,576.754211 218.496964,576.873718 218.268311,576.801941 
z"/>
<path fill="#1A7C9A" opacity="1.000000" stroke="none" 
	d="
M322.713623,409.057495 
	C322.751160,409.300995 322.512451,409.530457 322.026154,409.815552 
	C321.998169,409.595276 322.217773,409.319336 322.713623,409.057495 
z"/>
<path fill="#1A7C9A" opacity="1.000000" stroke="none" 
	d="
M801.590088,506.282227 
	C801.484070,506.033020 801.635681,505.703308 802.074402,505.329956 
	C802.190308,505.591431 802.019043,505.896576 801.590088,506.282227 
z"/>
<path fill="#1A7C9A" opacity="1.000000" stroke="none" 
	d="
M802.557739,505.300354 
	C802.473450,505.044769 802.646545,504.722961 803.114075,504.399414 
	C803.210754,504.676544 803.013000,504.955353 802.557739,505.300354 
z"/>
<path fill="#1A7C9A" opacity="1.000000" stroke="none" 
	d="
M801.524536,460.761017 
	C801.613220,461.004700 801.427490,461.329926 800.955566,461.720764 
	C800.863037,461.471802 801.056641,461.157196 801.524536,460.761017 
z"/>
<path fill="#E7EAE4" opacity="1.000000" stroke="none" 
	d="
M550.539185,525.471680 
	C544.726807,518.405884 543.662476,511.298553 547.242737,504.977448 
	C550.814575,498.671234 558.551025,494.977356 565.898132,496.070099 
	C572.976196,497.122894 578.652405,502.610291 580.388367,510.078552 
	C581.824707,516.257751 578.820007,523.697205 573.344116,527.519592 
	C567.795898,531.392456 559.291931,531.559875 553.551758,527.865295 
	C552.578918,527.239136 551.717163,526.440491 550.539185,525.471680 
z"/>
<path fill="#E7EAE4" opacity="1.000000" stroke="none" 
	d="
M696.130127,528.359985 
	C687.143127,531.998108 679.855591,530.753601 674.250427,524.861389 
	C669.568420,519.939575 668.339050,511.952637 671.313477,505.780548 
	C674.531738,499.102539 680.993958,495.506531 688.916382,495.929138 
	C696.643250,496.341309 701.598328,500.621033 704.393799,507.454926 
	C706.916199,513.621277 704.650696,521.156067 699.230774,526.060364 
	C698.371704,526.837708 697.386902,527.476013 696.130127,528.359985 
z"/>
<path fill="#E4E9EA" opacity="1.000000" stroke="none" 
	d="
M243.773804,535.628174 
	C233.444931,532.381104 228.069946,525.684998 228.054276,516.435364 
	C228.039993,508.008942 233.689804,500.164581 241.716125,497.466736 
	C250.049545,494.665680 259.217896,497.436859 264.372772,504.601593 
	C269.337769,511.502411 269.538147,519.007385 265.449860,526.221069 
	C260.824280,534.382874 253.280884,537.056946 243.773804,535.628174 
z"/>
<path fill="#E4E9EA" opacity="1.000000" stroke="none" 
	d="
M437.467438,496.272003 
	C448.558563,499.209106 455.151093,507.684021 454.404785,517.582520 
	C453.677338,527.230835 446.655701,534.594177 436.990143,535.844910 
	C426.100067,537.253967 416.070435,529.395325 414.788086,518.448547 
	C413.430969,506.863708 421.289551,497.273956 433.075348,496.186462 
	C434.390717,496.065094 435.729218,496.194397 437.467438,496.272003 
z"/>
</svg>